<?xml version="1.0" encoding="UTF-8" standalone="no"?><svg xmlns="http://www.w3.org/2000/svg" xmlns:xlink="http://www.w3.org/1999/xlink" contentScriptType="application/ecmascript" contentStyleType="text/css" height="412px" preserveAspectRatio="none" style="width:328px;height:412px;" version="1.1" viewBox="0 0 328 412" width="328px" zoomAndPan="magnify"><defs><filter height="300%" id="frglo9g" width="300%" x="-1" y="-1"><feGaussianBlur result="blurOut" stdDeviation="2.0"/><feColorMatrix in="blurOut" result="blurOut2" type="matrix" values="0 0 0 0 0 0 0 0 0 0 0 0 0 0 0 0 0 0 .4 0"/><feOffset dx="4.0" dy="4.0" in="blurOut2" result="blurOut3"/><feBlend in="SourceGraphic" in2="blurOut3" mode="normal"/></filter></defs><g><rect fill="#FFFFFF" filter="url(#frglo9g)" height="100.5313" style="stroke: #FFFFFF; stroke-width: 1.0;" width="10" x="228.5" y="106.4297"/><line style="stroke: #A80036; stroke-width: 1.0;" x1="228.5" x2="228.5" y1="106.4297" y2="206.9609"/><line style="stroke: #A80036; stroke-width: 1.0;" x1="238.5" x2="238.5" y1="106.4297" y2="206.9609"/><line style="stroke: #A80036; stroke-width: 1.0;" x1="228.5" x2="238.5" y1="106.4297" y2="106.4297"/><rect fill="#FFFFFF" filter="url(#frglo9g)" height="50.1328" style="stroke: #FFFFFF; stroke-width: 1.0;" width="10" x="228.5" y="247.7656"/><line style="stroke: #A80036; stroke-width: 1.0;" x1="228.5" x2="228.5" y1="247.7656" y2="297.8984"/><line style="stroke: #A80036; stroke-width: 1.0;" x1="238.5" x2="238.5" y1="247.7656" y2="297.8984"/><line style="stroke: #A80036; stroke-width: 1.0;" x1="228.5" x2="238.5" y1="297.8984" y2="297.8984"/><line style="stroke: #A80036; stroke-width: 1.0;" x1="36" x2="36" y1="38.2969" y2="206.9609"/><line style="stroke: #A80036; stroke-width: 1.0; stroke-dasharray: 1.0,4.0;" x1="36" x2="36" y1="206.9609" y2="247.7656"/><line style="stroke: #A80036; stroke-width: 1.0;" x1="36" x2="36" y1="247.7656" y2="374.2969"/><line style="stroke: #A80036; stroke-width: 1.0;" x1="233.5" x2="233.5" y1="38.2969" y2="206.9609"/><line style="stroke: #A80036; stroke-width: 1.0; stroke-dasharray: 1.0,4.0;" x1="233.5" x2="233.5" y1="206.9609" y2="247.7656"/><line style="stroke: #A80036; stroke-width: 1.0;" x1="233.5" x2="233.5" y1="247.7656" y2="374.2969"/><rect fill="#FEFECE" filter="url(#frglo9g)" height="30.2969" style="stroke: #A80036; stroke-width: 1.5;" width="53" x="8" y="3"/><text fill="#000000" font-family="sans-serif" font-size="14" lengthAdjust="spacingAndGlyphs" textLength="39" x="15" y="22.9951">Client</text><rect fill="#FEFECE" filter="url(#frglo9g)" height="30.2969" style="stroke: #A80036; stroke-width: 1.5;" width="53" x="8" y="373.2969"/><text fill="#000000" font-family="sans-serif" font-size="14" lengthAdjust="spacingAndGlyphs" textLength="39" x="15" y="393.292">Client</text><rect fill="#FEFECE" filter="url(#frglo9g)" height="30.2969" style="stroke: #A80036; stroke-width: 1.5;" width="58" x="202.5" y="3"/><text fill="#000000" font-family="sans-serif" font-size="14" lengthAdjust="spacingAndGlyphs" textLength="44" x="209.5" y="22.9951">Server</text><rect fill="#FEFECE" filter="url(#frglo9g)" height="30.2969" style="stroke: #A80036; stroke-width: 1.5;" width="58" x="202.5" y="373.2969"/><text fill="#000000" font-family="sans-serif" font-size="14" lengthAdjust="spacingAndGlyphs" textLength="44" x="209.5" y="393.292">Server</text><rect fill="#FFFFFF" filter="url(#frglo9g)" height="100.5313" style="stroke: #FFFFFF; stroke-width: 1.0;" width="10" x="228.5" y="106.4297"/><line style="stroke: #A80036; stroke-width: 1.0;" x1="228.5" x2="228.5" y1="106.4297" y2="206.9609"/><line style="stroke: #A80036; stroke-width: 1.0;" x1="238.5" x2="238.5" y1="106.4297" y2="206.9609"/><line style="stroke: #A80036; stroke-width: 1.0;" x1="228.5" x2="238.5" y1="106.4297" y2="106.4297"/><rect fill="#FFFFFF" filter="url(#frglo9g)" height="50.1328" style="stroke: #FFFFFF; stroke-width: 1.0;" width="10" x="228.5" y="247.7656"/><line style="stroke: #A80036; stroke-width: 1.0;" x1="228.5" x2="228.5" y1="247.7656" y2="297.8984"/><line style="stroke: #A80036; stroke-width: 1.0;" x1="238.5" x2="238.5" y1="247.7656" y2="297.8984"/><line style="stroke: #A80036; stroke-width: 1.0;" x1="228.5" x2="238.5" y1="297.8984" y2="297.8984"/><polygon fill="#A80036" points="221.5,65.2969,231.5,69.2969,221.5,73.2969,225.5,69.2969" style="stroke: #A80036; stroke-width: 1.0;"/><line style="stroke: #A80036; stroke-width: 1.0;" x1="36.5" x2="227.5" y1="69.2969" y2="69.2969"/><text fill="#000000" font-family="sans-serif" font-size="13" lengthAdjust="spacingAndGlyphs" textLength="157" x="43.5" y="64.3638">username and password</text><line style="stroke: #A80036; stroke-width: 1.0;" x1="233.5" x2="280.5" y1="93.5625" y2="93.5625"/><line style="stroke: #A80036; stroke-width: 1.0;" x1="280.5" x2="280.5" y1="93.5625" y2="106.5625"/><line style="stroke: #A80036; stroke-width: 1.0;" x1="239.5" x2="280.5" y1="106.5625" y2="106.5625"/><polygon fill="#A80036" points="249.5,102.5625,239.5,106.5625,249.5,110.5625,245.5,106.5625" style="stroke: #A80036; stroke-width: 1.0;"/><text fill="#000000" font-family="sans-serif" font-size="13" lengthAdjust="spacingAndGlyphs" textLength="82" x="245.5" y="88.4966">start session</text><polygon fill="#A80036" points="47.5,136.5625,37.5,140.5625,47.5,144.5625,43.5,140.5625" style="stroke: #A80036; stroke-width: 1.0;"/><line style="stroke: #A80036; stroke-width: 1.0; stroke-dasharray: 2.0,2.0;" x1="41.5" x2="227.5" y1="140.5625" y2="140.5625"/><text fill="#000000" font-family="sans-serif" font-size="13" lengthAdjust="spacingAndGlyphs" textLength="86" x="53.5" y="135.6294">sessionToken</text><polygon fill="#A80036" points="216.5,165.6953,226.5,169.6953,216.5,173.6953,220.5,169.6953" style="stroke: #A80036; stroke-width: 1.0;"/><line style="stroke: #A80036; stroke-width: 1.0;" x1="36.5" x2="222.5" y1="169.6953" y2="169.6953"/><text fill="#000000" font-family="sans-serif" font-size="13" lengthAdjust="spacingAndGlyphs" textLength="168" x="43.5" y="164.7622">request with sessionToken</text><polygon fill="#A80036" points="47.5,194.8281,37.5,198.8281,47.5,202.8281,43.5,198.8281" style="stroke: #A80036; stroke-width: 1.0;"/><line style="stroke: #A80036; stroke-width: 1.0; stroke-dasharray: 2.0,2.0;" x1="41.5" x2="227.5" y1="198.8281" y2="198.8281"/><text fill="#000000" font-family="sans-serif" font-size="13" lengthAdjust="spacingAndGlyphs" textLength="59" x="53.5" y="193.895">response</text><text fill="#000000" font-family="sans-serif" font-size="11" lengthAdjust="spacingAndGlyphs" textLength="0" x="137" y="231.1714"/><polygon fill="#A80036" points="216.5,264.7656,226.5,268.7656,216.5,272.7656,220.5,268.7656" style="stroke: #A80036; stroke-width: 1.0;"/><line style="stroke: #A80036; stroke-width: 1.0;" x1="36.5" x2="222.5" y1="268.7656" y2="268.7656"/><text fill="#000000" font-family="sans-serif" font-size="13" lengthAdjust="spacingAndGlyphs" textLength="168" x="43.5" y="263.8325">request with sessionToken</text><polygon fill="#A80036" points="47.5,293.8984,37.5,297.8984,47.5,301.8984,43.5,297.8984" style="stroke: #A80036; stroke-width: 1.0;"/><line style="stroke: #A80036; stroke-width: 1.0; stroke-dasharray: 2.0,2.0;" x1="41.5" x2="232.5" y1="297.8984" y2="297.8984"/><text fill="#000000" font-family="sans-serif" font-size="13" lengthAdjust="spacingAndGlyphs" textLength="59" x="53.5" y="292.9653">response</text><line style="stroke: #A80036; stroke-width: 2.0;" x1="224.5" x2="242.5" y1="288.8984" y2="306.8984"/><line style="stroke: #A80036; stroke-width: 2.0;" x1="224.5" x2="242.5" y1="306.8984" y2="288.8984"/><polygon fill="#A80036" points="221.5,323.0313,231.5,327.0313,221.5,331.0313,225.5,327.0313" style="stroke: #A80036; stroke-width: 1.0;"/><line style="stroke: #A80036; stroke-width: 1.0;" x1="36.5" x2="227.5" y1="327.0313" y2="327.0313"/><text fill="#000000" font-family="sans-serif" font-size="13" lengthAdjust="spacingAndGlyphs" textLength="168" x="43.5" y="322.0981">request with sessionToken</text><polygon fill="#A80036" points="47.5,352.1641,37.5,356.1641,47.5,360.1641,43.5,356.1641" style="stroke: #A80036; stroke-width: 1.0;"/><line style="stroke: #A80036; stroke-width: 1.0; stroke-dasharray: 2.0,2.0;" x1="41.5" x2="232.5" y1="356.1641" y2="356.1641"/><text fill="#000000" font-family="sans-serif" font-size="13" lengthAdjust="spacingAndGlyphs" textLength="31" x="53.5" y="351.231">error</text></g></svg>