<?xml version="1.0" encoding="UTF-8" standalone="no"?><svg xmlns="http://www.w3.org/2000/svg" xmlns:xlink="http://www.w3.org/1999/xlink" contentScriptType="application/ecmascript" contentStyleType="text/css" height="438px" preserveAspectRatio="none" style="width:310px;height:438px;" version="1.1" viewBox="0 0 310 438" width="310px" zoomAndPan="magnify"><defs><filter height="300%" id="f1bac4c" width="300%" x="-1" y="-1"><feGaussianBlur result="blurOut" stdDeviation="2.0"/><feColorMatrix in="blurOut" result="blurOut2" type="matrix" values="0 0 0 0 0 0 0 0 0 0 0 0 0 0 0 0 0 0 .4 0"/><feOffset dx="4.0" dy="4.0" in="blurOut2" result="blurOut3"/><feBlend in="SourceGraphic" in2="blurOut3" mode="normal"/></filter></defs><g><line style="stroke: #A80036; stroke-width: 1.0;" x1="36" x2="36" y1="38.2969" y2="249.0938"/><line style="stroke: #A80036; stroke-width: 1.0; stroke-dasharray: 1.0,4.0;" x1="36" x2="36" y1="249.0938" y2="289.8984"/><line style="stroke: #A80036; stroke-width: 1.0;" x1="36" x2="36" y1="289.8984" y2="400.2969"/><line style="stroke: #A80036; stroke-width: 1.0;" x1="217.5" x2="217.5" y1="38.2969" y2="249.0938"/><line style="stroke: #A80036; stroke-width: 1.0; stroke-dasharray: 1.0,4.0;" x1="217.5" x2="217.5" y1="249.0938" y2="289.8984"/><line style="stroke: #A80036; stroke-width: 1.0;" x1="217.5" x2="217.5" y1="289.8984" y2="400.2969"/><rect fill="#FEFECE" filter="url(#f1bac4c)" height="30.2969" style="stroke: #A80036; stroke-width: 1.5;" width="53" x="8" y="3"/><text fill="#000000" font-family="sans-serif" font-size="14" lengthAdjust="spacingAndGlyphs" textLength="39" x="15" y="22.9951">Client</text><rect fill="#FEFECE" filter="url(#f1bac4c)" height="30.2969" style="stroke: #A80036; stroke-width: 1.5;" width="53" x="8" y="399.2969"/><text fill="#000000" font-family="sans-serif" font-size="14" lengthAdjust="spacingAndGlyphs" textLength="39" x="15" y="419.292">Client</text><rect fill="#FEFECE" filter="url(#f1bac4c)" height="30.2969" style="stroke: #A80036; stroke-width: 1.5;" width="58" x="186.5" y="3"/><text fill="#000000" font-family="sans-serif" font-size="14" lengthAdjust="spacingAndGlyphs" textLength="44" x="193.5" y="22.9951">Server</text><rect fill="#FEFECE" filter="url(#f1bac4c)" height="30.2969" style="stroke: #A80036; stroke-width: 1.5;" width="58" x="186.5" y="399.2969"/><text fill="#000000" font-family="sans-serif" font-size="14" lengthAdjust="spacingAndGlyphs" textLength="44" x="193.5" y="419.292">Server</text><polygon fill="#A80036" points="205.5,65.2969,215.5,69.2969,205.5,73.2969,209.5,69.2969" style="stroke: #A80036; stroke-width: 1.0;"/><line style="stroke: #A80036; stroke-width: 1.0;" x1="36.5" x2="211.5" y1="69.2969" y2="69.2969"/><text fill="#000000" font-family="sans-serif" font-size="13" lengthAdjust="spacingAndGlyphs" textLength="157" x="43.5" y="64.3638">username and password</text><line style="stroke: #A80036; stroke-width: 1.0;" x1="217.5" x2="259.5" y1="98.5625" y2="98.5625"/><line style="stroke: #A80036; stroke-width: 1.0;" x1="259.5" x2="259.5" y1="98.5625" y2="111.5625"/><line style="stroke: #A80036; stroke-width: 1.0;" x1="218.5" x2="259.5" y1="111.5625" y2="111.5625"/><polygon fill="#A80036" points="228.5,107.5625,218.5,111.5625,228.5,115.5625,224.5,111.5625" style="stroke: #A80036; stroke-width: 1.0;"/><text fill="#000000" font-family="sans-serif" font-size="13" lengthAdjust="spacingAndGlyphs" textLength="85" x="224.5" y="93.4966">construct JWT</text><polygon fill="#A80036" points="47.5,136.5625,37.5,140.5625,47.5,144.5625,43.5,140.5625" style="stroke: #A80036; stroke-width: 1.0;"/><line style="stroke: #A80036; stroke-width: 1.0; stroke-dasharray: 2.0,2.0;" x1="41.5" x2="216.5" y1="140.5625" y2="140.5625"/><text fill="#000000" font-family="sans-serif" font-size="13" lengthAdjust="spacingAndGlyphs" textLength="21" x="53.5" y="135.6294">JWT</text><polygon fill="#A80036" points="205.5,165.6953,215.5,169.6953,205.5,173.6953,209.5,169.6953" style="stroke: #A80036; stroke-width: 1.0;"/><line style="stroke: #A80036; stroke-width: 1.0;" x1="36.5" x2="211.5" y1="169.6953" y2="169.6953"/><text fill="#000000" font-family="sans-serif" font-size="13" lengthAdjust="spacingAndGlyphs" textLength="103" x="43.5" y="164.7622">request with JWT</text><line style="stroke: #A80036; stroke-width: 1.0;" x1="217.5" x2="259.5" y1="198.9609" y2="198.9609"/><line style="stroke: #A80036; stroke-width: 1.0;" x1="259.5" x2="259.5" y1="198.9609" y2="211.9609"/><line style="stroke: #A80036; stroke-width: 1.0;" x1="218.5" x2="259.5" y1="211.9609" y2="211.9609"/><polygon fill="#A80036" points="228.5,207.9609,218.5,211.9609,228.5,215.9609,224.5,211.9609" style="stroke: #A80036; stroke-width: 1.0;"/><text fill="#000000" font-family="sans-serif" font-size="13" lengthAdjust="spacingAndGlyphs" textLength="62" x="224.5" y="193.895">check JWT</text><polygon fill="#A80036" points="47.5,236.9609,37.5,240.9609,47.5,244.9609,43.5,240.9609" style="stroke: #A80036; stroke-width: 1.0;"/><line style="stroke: #A80036; stroke-width: 1.0; stroke-dasharray: 2.0,2.0;" x1="41.5" x2="216.5" y1="240.9609" y2="240.9609"/><text fill="#000000" font-family="sans-serif" font-size="13" lengthAdjust="spacingAndGlyphs" textLength="59" x="53.5" y="236.0278">response</text><text fill="#000000" font-family="sans-serif" font-size="11" lengthAdjust="spacingAndGlyphs" textLength="0" x="129" y="273.3042"/><polygon fill="#A80036" points="205.5,306.8984,215.5,310.8984,205.5,314.8984,209.5,310.8984" style="stroke: #A80036; stroke-width: 1.0;"/><line style="stroke: #A80036; stroke-width: 1.0;" x1="36.5" x2="211.5" y1="310.8984" y2="310.8984"/><text fill="#000000" font-family="sans-serif" font-size="13" lengthAdjust="spacingAndGlyphs" textLength="103" x="43.5" y="305.9653">request with JWT</text><line style="stroke: #A80036; stroke-width: 1.0;" x1="217.5" x2="259.5" y1="340.1641" y2="340.1641"/><line style="stroke: #A80036; stroke-width: 1.0;" x1="259.5" x2="259.5" y1="340.1641" y2="353.1641"/><line style="stroke: #A80036; stroke-width: 1.0;" x1="218.5" x2="259.5" y1="353.1641" y2="353.1641"/><polygon fill="#A80036" points="228.5,349.1641,218.5,353.1641,228.5,357.1641,224.5,353.1641" style="stroke: #A80036; stroke-width: 1.0;"/><text fill="#000000" font-family="sans-serif" font-size="13" lengthAdjust="spacingAndGlyphs" textLength="62" x="224.5" y="335.0981">check JWT</text><polygon fill="#A80036" points="47.5,378.1641,37.5,382.1641,47.5,386.1641,43.5,382.1641" style="stroke: #A80036; stroke-width: 1.0;"/><line style="stroke: #A80036; stroke-width: 1.0; stroke-dasharray: 2.0,2.0;" x1="41.5" x2="216.5" y1="382.1641" y2="382.1641"/><text fill="#000000" font-family="sans-serif" font-size="13" lengthAdjust="spacingAndGlyphs" textLength="59" x="53.5" y="377.231">response</text></g></svg>